<svg xmlns="http://www.w3.org/2000/svg" width="24" height="24" viewBox="0 0 24 24" id="onlyfans">
  <g id="social/logos/onlyfans" fill="none" fill-rule="evenodd" stroke="none" stroke-linecap="round" stroke-linejoin="round" stroke-width="1">
    <path id="line" stroke="#000" d="M9.5,18.5 L9.25935025,18.495941 C5.50478338,18.3690987 2.5,15.2854517 2.5,11.5 C2.5,7.63400675 5.63400675,4.5 9.5,4.5 C11.3012014,4.5 12.9435096,5.18030286 14.183995,6.2979791 M22.5,4.5 C22.080741,6.80592468 20.5109608,8.65586968 18.4478484,9.50136057 L21,9.5 C20.4396226,11.7415095 18.4932197,13.3451035 16.212802,13.4893966 C15.3786612,16.3121954 12.810235,18.3922397 9.74064975,18.495941 L9.5,18.5 L13.3148864,7.81831802 C14.0255881,5.82835319 15.9105278,4.5 18.023596,4.5 L22.5,4.5 Z M9.5,13.5 C10.6045695,13.5 11.5,12.6045695 11.5,11.5 C11.5,10.3954305 10.6045695,9.5 9.5,9.5 C8.3954305,9.5 7.5,10.3954305 7.5,11.5 C7.5,12.6045695 8.3954305,13.5 9.5,13.5 Z"></path>
  </g>
</svg>
